<svg xmlns="http://www.w3.org/2000/svg" viewBox="0 0 100 100" preserveAspectRatio="xMidYMid" width="249" height="249" style="shape-rendering: auto; display: block; background: transparent;" xmlns:xlink="http://www.w3.org/1999/xlink"><g><g transform="rotate(0 50 50)">
  <rect fill="#f75d83" height="9" width="2" ry="0" rx="0" y="20.5" x="49">
    <animate repeatCount="indefinite" begin="-1.6163793103448274s" dur="1.7241379310344827s" keyTimes="0;1" values="1;0" attributeName="opacity"></animate>
  </rect>
</g><g transform="rotate(22.5 50 50)">
  <rect fill="#f75d83" height="9" width="2" ry="0" rx="0" y="20.5" x="49">
    <animate repeatCount="indefinite" begin="-1.5086206896551722s" dur="1.7241379310344827s" keyTimes="0;1" values="1;0" attributeName="opacity"></animate>
  </rect>
</g><g transform="rotate(45 50 50)">
  <rect fill="#f75d83" height="9" width="2" ry="0" rx="0" y="20.5" x="49">
    <animate repeatCount="indefinite" begin="-1.4008620689655171s" dur="1.7241379310344827s" keyTimes="0;1" values="1;0" attributeName="opacity"></animate>
  </rect>
</g><g transform="rotate(67.5 50 50)">
  <rect fill="#f75d83" height="9" width="2" ry="0" rx="0" y="20.5" x="49">
    <animate repeatCount="indefinite" begin="-1.2931034482758619s" dur="1.7241379310344827s" keyTimes="0;1" values="1;0" attributeName="opacity"></animate>
  </rect>
</g><g transform="rotate(90 50 50)">
  <rect fill="#f75d83" height="9" width="2" ry="0" rx="0" y="20.5" x="49">
    <animate repeatCount="indefinite" begin="-1.1853448275862069s" dur="1.7241379310344827s" keyTimes="0;1" values="1;0" attributeName="opacity"></animate>
  </rect>
</g><g transform="rotate(112.5 50 50)">
  <rect fill="#f75d83" height="9" width="2" ry="0" rx="0" y="20.5" x="49">
    <animate repeatCount="indefinite" begin="-1.0775862068965516s" dur="1.7241379310344827s" keyTimes="0;1" values="1;0" attributeName="opacity"></animate>
  </rect>
</g><g transform="rotate(135 50 50)">
  <rect fill="#f75d83" height="9" width="2" ry="0" rx="0" y="20.5" x="49">
    <animate repeatCount="indefinite" begin="-0.9698275862068965s" dur="1.7241379310344827s" keyTimes="0;1" values="1;0" attributeName="opacity"></animate>
  </rect>
</g><g transform="rotate(157.5 50 50)">
  <rect fill="#f75d83" height="9" width="2" ry="0" rx="0" y="20.5" x="49">
    <animate repeatCount="indefinite" begin="-0.8620689655172413s" dur="1.7241379310344827s" keyTimes="0;1" values="1;0" attributeName="opacity"></animate>
  </rect>
</g><g transform="rotate(180 50 50)">
  <rect fill="#f75d83" height="9" width="2" ry="0" rx="0" y="20.5" x="49">
    <animate repeatCount="indefinite" begin="-0.7543103448275861s" dur="1.7241379310344827s" keyTimes="0;1" values="1;0" attributeName="opacity"></animate>
  </rect>
</g><g transform="rotate(202.5 50 50)">
  <rect fill="#f75d83" height="9" width="2" ry="0" rx="0" y="20.5" x="49">
    <animate repeatCount="indefinite" begin="-0.6465517241379309s" dur="1.7241379310344827s" keyTimes="0;1" values="1;0" attributeName="opacity"></animate>
  </rect>
</g><g transform="rotate(225 50 50)">
  <rect fill="#f75d83" height="9" width="2" ry="0" rx="0" y="20.5" x="49">
    <animate repeatCount="indefinite" begin="-0.5387931034482758s" dur="1.7241379310344827s" keyTimes="0;1" values="1;0" attributeName="opacity"></animate>
  </rect>
</g><g transform="rotate(247.5 50 50)">
  <rect fill="#f75d83" height="9" width="2" ry="0" rx="0" y="20.5" x="49">
    <animate repeatCount="indefinite" begin="-0.43103448275862066s" dur="1.7241379310344827s" keyTimes="0;1" values="1;0" attributeName="opacity"></animate>
  </rect>
</g><g transform="rotate(270 50 50)">
  <rect fill="#f75d83" height="9" width="2" ry="0" rx="0" y="20.5" x="49">
    <animate repeatCount="indefinite" begin="-0.32327586206896547s" dur="1.7241379310344827s" keyTimes="0;1" values="1;0" attributeName="opacity"></animate>
  </rect>
</g><g transform="rotate(292.5 50 50)">
  <rect fill="#f75d83" height="9" width="2" ry="0" rx="0" y="20.5" x="49">
    <animate repeatCount="indefinite" begin="-0.21551724137931033s" dur="1.7241379310344827s" keyTimes="0;1" values="1;0" attributeName="opacity"></animate>
  </rect>
</g><g transform="rotate(315 50 50)">
  <rect fill="#f75d83" height="9" width="2" ry="0" rx="0" y="20.5" x="49">
    <animate repeatCount="indefinite" begin="-0.10775862068965517s" dur="1.7241379310344827s" keyTimes="0;1" values="1;0" attributeName="opacity"></animate>
  </rect>
</g><g transform="rotate(337.5 50 50)">
  <rect fill="#f75d83" height="9" width="2" ry="0" rx="0" y="20.5" x="49">
    <animate repeatCount="indefinite" begin="0s" dur="1.7241379310344827s" keyTimes="0;1" values="1;0" attributeName="opacity"></animate>
  </rect>
</g><g></g></g><!-- [ldio] generated by https://loading.io --></svg>